<mxfile host="app.diagrams.net" agent="Mozilla/5.0 (Windows NT 10.0; Win64; x64) AppleWebKit/537.36 (KHTML, like Gecko) Chrome/130.0.0.0 Safari/537.36 Edg/130.0.0.0" version="24.8.4">
  <diagram name="Page-0" id="6ynVE3JUyWCL2I9uEFbG">
    <mxGraphModel dx="2193" dy="1133" grid="1" gridSize="10" guides="1" tooltips="1" connect="1" arrows="1" fold="1" page="1" pageScale="1" pageWidth="1169" pageHeight="827" math="0" shadow="0">
      <root>
        <mxCell id="0" />
        <mxCell id="1" parent="0" />
        <mxCell id="Jjx-n1GLnTYui9cO-WU7-42" style="edgeStyle=orthogonalEdgeStyle;curved=1;rounded=0;orthogonalLoop=1;jettySize=auto;html=1;entryX=0.993;entryY=0.347;entryDx=0;entryDy=0;entryPerimeter=0;exitX=0.5;exitY=0;exitDx=0;exitDy=0;" parent="1" target="Jjx-n1GLnTYui9cO-WU7-6" edge="1">
          <mxGeometry relative="1" as="geometry">
            <mxPoint x="400" y="223" as="targetPoint" />
            <mxPoint x="450" y="307" as="sourcePoint" />
          </mxGeometry>
        </mxCell>
        <mxCell id="Jjx-n1GLnTYui9cO-WU7-5" value="&lt;font style=&quot;font-size: 24px;&quot;&gt;&lt;b&gt;PoV&lt;br&gt;2017&lt;/b&gt;&lt;/font&gt;" style="rounded=0;whiteSpace=wrap;html=1;" parent="1" vertex="1">
          <mxGeometry x="350" y="307" width="200" height="134" as="geometry" />
        </mxCell>
        <mxCell id="Jjx-n1GLnTYui9cO-WU7-44" style="edgeStyle=orthogonalEdgeStyle;curved=1;rounded=0;orthogonalLoop=1;jettySize=auto;html=1;exitX=0.5;exitY=0;exitDx=0;exitDy=0;entryX=0.5;entryY=1;entryDx=0;entryDy=0;" parent="1" source="Jjx-n1GLnTYui9cO-WU7-6" target="Jjx-n1GLnTYui9cO-WU7-23" edge="1">
          <mxGeometry relative="1" as="geometry" />
        </mxCell>
        <mxCell id="Jjx-n1GLnTYui9cO-WU7-46" style="edgeStyle=orthogonalEdgeStyle;curved=1;rounded=0;orthogonalLoop=1;jettySize=auto;html=1;" parent="1" source="Jjx-n1GLnTYui9cO-WU7-6" target="Jjx-n1GLnTYui9cO-WU7-21" edge="1">
          <mxGeometry relative="1" as="geometry" />
        </mxCell>
        <mxCell id="Jjx-n1GLnTYui9cO-WU7-50" style="edgeStyle=orthogonalEdgeStyle;curved=1;rounded=0;orthogonalLoop=1;jettySize=auto;html=1;exitX=0;exitY=0.5;exitDx=0;exitDy=0;" parent="1" source="Jjx-n1GLnTYui9cO-WU7-6" target="Jjx-n1GLnTYui9cO-WU7-22" edge="1">
          <mxGeometry relative="1" as="geometry" />
        </mxCell>
        <mxCell id="Jjx-n1GLnTYui9cO-WU7-6" value="PnV&lt;br&gt;2019" style="ellipse;whiteSpace=wrap;html=1;" parent="1" vertex="1">
          <mxGeometry x="250" y="173" width="120" height="80" as="geometry" />
        </mxCell>
        <mxCell id="Jjx-n1GLnTYui9cO-WU7-45" style="edgeStyle=orthogonalEdgeStyle;curved=1;rounded=0;orthogonalLoop=1;jettySize=auto;html=1;exitX=0.5;exitY=0;exitDx=0;exitDy=0;" parent="1" source="Jjx-n1GLnTYui9cO-WU7-8" edge="1">
          <mxGeometry relative="1" as="geometry">
            <mxPoint x="450" y="113.00000000000011" as="targetPoint" />
          </mxGeometry>
        </mxCell>
        <mxCell id="Jjx-n1GLnTYui9cO-WU7-51" style="edgeStyle=orthogonalEdgeStyle;curved=1;rounded=0;orthogonalLoop=1;jettySize=auto;html=1;exitX=1;exitY=0;exitDx=0;exitDy=0;" parent="1" source="Jjx-n1GLnTYui9cO-WU7-8" target="Jjx-n1GLnTYui9cO-WU7-24" edge="1">
          <mxGeometry relative="1" as="geometry" />
        </mxCell>
        <mxCell id="Jjx-n1GLnTYui9cO-WU7-52" style="edgeStyle=orthogonalEdgeStyle;curved=1;rounded=0;orthogonalLoop=1;jettySize=auto;html=1;exitX=1;exitY=1;exitDx=0;exitDy=0;entryX=0.5;entryY=1;entryDx=0;entryDy=0;" parent="1" source="Jjx-n1GLnTYui9cO-WU7-8" target="Jjx-n1GLnTYui9cO-WU7-26" edge="1">
          <mxGeometry relative="1" as="geometry" />
        </mxCell>
        <mxCell id="Jjx-n1GLnTYui9cO-WU7-8" value="HotStuff&lt;br&gt;2018" style="ellipse;whiteSpace=wrap;html=1;" parent="1" vertex="1">
          <mxGeometry x="540" y="173" width="120" height="80" as="geometry" />
        </mxCell>
        <mxCell id="Jjx-n1GLnTYui9cO-WU7-72" style="edgeStyle=orthogonalEdgeStyle;curved=1;rounded=0;orthogonalLoop=1;jettySize=auto;html=1;entryX=1;entryY=0.5;entryDx=0;entryDy=0;" parent="1" target="Jjx-n1GLnTYui9cO-WU7-14" edge="1">
          <mxGeometry relative="1" as="geometry">
            <mxPoint x="92" y="520" as="sourcePoint" />
          </mxGeometry>
        </mxCell>
        <mxCell id="Jjx-n1GLnTYui9cO-WU7-77" style="edgeStyle=orthogonalEdgeStyle;curved=1;rounded=0;orthogonalLoop=1;jettySize=auto;html=1;entryX=1;entryY=0.5;entryDx=0;entryDy=0;exitX=0;exitY=0.5;exitDx=0;exitDy=0;" parent="1" source="FyjvSkbcfdwy83ujvMnT-1" target="Jjx-n1GLnTYui9cO-WU7-17" edge="1">
          <mxGeometry relative="1" as="geometry">
            <Array as="points">
              <mxPoint x="160" y="520" />
              <mxPoint x="32" y="520" />
              <mxPoint x="32" y="710" />
            </Array>
            <mxPoint x="92" y="520" as="sourcePoint" />
          </mxGeometry>
        </mxCell>
        <mxCell id="Jjx-n1GLnTYui9cO-WU7-80" style="edgeStyle=orthogonalEdgeStyle;curved=1;rounded=0;orthogonalLoop=1;jettySize=auto;html=1;entryX=1;entryY=0.5;entryDx=0;entryDy=0;exitX=0;exitY=0.5;exitDx=0;exitDy=0;" parent="1" source="FyjvSkbcfdwy83ujvMnT-1" target="Jjx-n1GLnTYui9cO-WU7-19" edge="1">
          <mxGeometry relative="1" as="geometry">
            <mxPoint x="90" y="520" as="sourcePoint" />
          </mxGeometry>
        </mxCell>
        <mxCell id="Jjx-n1GLnTYui9cO-WU7-67" style="edgeStyle=orthogonalEdgeStyle;curved=1;rounded=0;orthogonalLoop=1;jettySize=auto;html=1;entryX=0;entryY=0.5;entryDx=0;entryDy=0;" parent="1" source="Jjx-n1GLnTYui9cO-WU7-11" target="Jjx-n1GLnTYui9cO-WU7-12" edge="1">
          <mxGeometry relative="1" as="geometry" />
        </mxCell>
        <mxCell id="Jjx-n1GLnTYui9cO-WU7-73" style="edgeStyle=orthogonalEdgeStyle;curved=1;rounded=0;orthogonalLoop=1;jettySize=auto;html=1;entryX=1;entryY=0.5;entryDx=0;entryDy=0;" parent="1" target="Jjx-n1GLnTYui9cO-WU7-15" edge="1">
          <mxGeometry relative="1" as="geometry">
            <mxPoint x="52" y="640" as="sourcePoint" />
          </mxGeometry>
        </mxCell>
        <mxCell id="Jjx-n1GLnTYui9cO-WU7-74" style="edgeStyle=orthogonalEdgeStyle;curved=1;rounded=0;orthogonalLoop=1;jettySize=auto;html=1;entryX=1;entryY=0.5;entryDx=0;entryDy=0;" parent="1" target="Jjx-n1GLnTYui9cO-WU7-16" edge="1">
          <mxGeometry relative="1" as="geometry">
            <mxPoint x="52" y="640" as="sourcePoint" />
          </mxGeometry>
        </mxCell>
        <mxCell id="Jjx-n1GLnTYui9cO-WU7-76" style="edgeStyle=orthogonalEdgeStyle;curved=1;rounded=0;orthogonalLoop=1;jettySize=auto;html=1;entryX=1;entryY=0.5;entryDx=0;entryDy=0;" parent="1" target="Jjx-n1GLnTYui9cO-WU7-18" edge="1">
          <mxGeometry relative="1" as="geometry">
            <mxPoint x="52" y="640" as="sourcePoint" />
          </mxGeometry>
        </mxCell>
        <mxCell id="Jjx-n1GLnTYui9cO-WU7-79" style="edgeStyle=orthogonalEdgeStyle;curved=1;rounded=0;orthogonalLoop=1;jettySize=auto;html=1;" parent="1" source="Jjx-n1GLnTYui9cO-WU7-11" target="Jjx-n1GLnTYui9cO-WU7-13" edge="1">
          <mxGeometry relative="1" as="geometry" />
        </mxCell>
        <mxCell id="Jjx-n1GLnTYui9cO-WU7-11" value="PoS&lt;br&gt;2011" style="rounded=0;whiteSpace=wrap;html=1;" parent="1" vertex="1">
          <mxGeometry x="50" y="610" width="120" height="60" as="geometry" />
        </mxCell>
        <mxCell id="Jjx-n1GLnTYui9cO-WU7-66" style="edgeStyle=orthogonalEdgeStyle;curved=1;rounded=0;orthogonalLoop=1;jettySize=auto;html=1;" parent="1" source="Jjx-n1GLnTYui9cO-WU7-12" target="Jjx-n1GLnTYui9cO-WU7-34" edge="1">
          <mxGeometry relative="1" as="geometry" />
        </mxCell>
        <mxCell id="Jjx-n1GLnTYui9cO-WU7-12" value="DPoS&lt;br&gt;2013" style="rounded=0;whiteSpace=wrap;html=1;" parent="1" vertex="1">
          <mxGeometry x="300" y="700" width="120" height="60" as="geometry" />
        </mxCell>
        <mxCell id="Jjx-n1GLnTYui9cO-WU7-13" value="Ouroboros&lt;br&gt;2017" style="rounded=0;whiteSpace=wrap;html=1;" parent="1" vertex="1">
          <mxGeometry x="-18" y="780" width="120" height="60" as="geometry" />
        </mxCell>
        <mxCell id="Jjx-n1GLnTYui9cO-WU7-14" value="GHOST&lt;br&gt;2015" style="rounded=0;whiteSpace=wrap;html=1;" parent="1" vertex="1">
          <mxGeometry x="-178" y="444" width="120" height="60" as="geometry" />
        </mxCell>
        <mxCell id="Jjx-n1GLnTYui9cO-WU7-15" value="PoSpace&lt;br&gt;2014" style="rounded=0;whiteSpace=wrap;html=1;" parent="1" vertex="1">
          <mxGeometry x="-208" y="540" width="120" height="60" as="geometry" />
        </mxCell>
        <mxCell id="Jjx-n1GLnTYui9cO-WU7-16" value="PoB&lt;br&gt;2014" style="rounded=0;whiteSpace=wrap;html=1;" parent="1" vertex="1">
          <mxGeometry x="-208" y="610" width="120" height="60" as="geometry" />
        </mxCell>
        <mxCell id="Jjx-n1GLnTYui9cO-WU7-17" value="PoET&lt;br&gt;2016" style="rounded=0;whiteSpace=wrap;html=1;" parent="1" vertex="1">
          <mxGeometry x="-208" y="680" width="120" height="60" as="geometry" />
        </mxCell>
        <mxCell id="Jjx-n1GLnTYui9cO-WU7-18" value="PoL&lt;br&gt;2016" style="rounded=0;whiteSpace=wrap;html=1;" parent="1" vertex="1">
          <mxGeometry x="-208" y="750" width="120" height="60" as="geometry" />
        </mxCell>
        <mxCell id="Jjx-n1GLnTYui9cO-WU7-81" style="edgeStyle=orthogonalEdgeStyle;curved=1;rounded=0;orthogonalLoop=1;jettySize=auto;html=1;" parent="1" target="Jjx-n1GLnTYui9cO-WU7-38" edge="1">
          <mxGeometry relative="1" as="geometry">
            <mxPoint x="-18" y="417" as="sourcePoint" />
          </mxGeometry>
        </mxCell>
        <mxCell id="Jjx-n1GLnTYui9cO-WU7-19" value="Bitcoin-NG&lt;br&gt;2016" style="rounded=0;whiteSpace=wrap;html=1;" parent="1" vertex="1">
          <mxGeometry x="-18" y="384" width="120" height="60" as="geometry" />
        </mxCell>
        <mxCell id="Jjx-n1GLnTYui9cO-WU7-57" style="edgeStyle=orthogonalEdgeStyle;curved=1;rounded=0;orthogonalLoop=1;jettySize=auto;html=1;entryX=0.5;entryY=0;entryDx=0;entryDy=0;" parent="1" target="Jjx-n1GLnTYui9cO-WU7-30" edge="1">
          <mxGeometry relative="1" as="geometry">
            <mxPoint x="915" y="470" as="sourcePoint" />
            <mxPoint x="1055" y="582" as="targetPoint" />
          </mxGeometry>
        </mxCell>
        <mxCell id="Jjx-n1GLnTYui9cO-WU7-21" value="轻量化 PnV&lt;br&gt;2021" style="ellipse;whiteSpace=wrap;html=1;" parent="1" vertex="1">
          <mxGeometry x="190" y="53" width="120" height="80" as="geometry" />
        </mxCell>
        <mxCell id="Jjx-n1GLnTYui9cO-WU7-22" value="拟态PnV&lt;br&gt;2022" style="ellipse;whiteSpace=wrap;html=1;" parent="1" vertex="1">
          <mxGeometry x="40" y="143" width="120" height="80" as="geometry" />
        </mxCell>
        <mxCell id="Jjx-n1GLnTYui9cO-WU7-23" value="VaaP&lt;br&gt;2022" style="ellipse;whiteSpace=wrap;html=1;" parent="1" vertex="1">
          <mxGeometry x="390" y="33" width="120" height="80" as="geometry" />
        </mxCell>
        <mxCell id="Jjx-n1GLnTYui9cO-WU7-24" value="Sync HotStuff&lt;br&gt;2020" style="ellipse;whiteSpace=wrap;html=1;" parent="1" vertex="1">
          <mxGeometry x="700" y="63" width="120" height="80" as="geometry" />
        </mxCell>
        <mxCell id="Jjx-n1GLnTYui9cO-WU7-26" value="Fast HotStuff&lt;br&gt;2020" style="ellipse;whiteSpace=wrap;html=1;" parent="1" vertex="1">
          <mxGeometry x="710" y="227" width="120" height="80" as="geometry" />
        </mxCell>
        <mxCell id="Jjx-n1GLnTYui9cO-WU7-60" style="edgeStyle=orthogonalEdgeStyle;curved=1;rounded=0;orthogonalLoop=1;jettySize=auto;html=1;" parent="1" source="Jjx-n1GLnTYui9cO-WU7-27" target="Jjx-n1GLnTYui9cO-WU7-28" edge="1">
          <mxGeometry relative="1" as="geometry" />
        </mxCell>
        <mxCell id="Jjx-n1GLnTYui9cO-WU7-27" value="PBFT&lt;br&gt;1999" style="ellipse;whiteSpace=wrap;html=1;" parent="1" vertex="1">
          <mxGeometry x="757" y="622" width="120" height="80" as="geometry" />
        </mxCell>
        <mxCell id="Jjx-n1GLnTYui9cO-WU7-62" style="edgeStyle=orthogonalEdgeStyle;curved=1;rounded=0;orthogonalLoop=1;jettySize=auto;html=1;" parent="1" source="Jjx-n1GLnTYui9cO-WU7-28" target="Jjx-n1GLnTYui9cO-WU7-29" edge="1">
          <mxGeometry relative="1" as="geometry" />
        </mxCell>
        <mxCell id="Jjx-n1GLnTYui9cO-WU7-28" value="Tangaroa&lt;br&gt;2014" style="ellipse;whiteSpace=wrap;html=1;" parent="1" vertex="1">
          <mxGeometry x="826" y="760" width="120" height="80" as="geometry" />
        </mxCell>
        <mxCell id="Jjx-n1GLnTYui9cO-WU7-29" value="Scalable BFT&lt;br&gt;1999" style="ellipse;whiteSpace=wrap;html=1;" parent="1" vertex="1">
          <mxGeometry x="776" y="890" width="120" height="80" as="geometry" />
        </mxCell>
        <mxCell id="Jjx-n1GLnTYui9cO-WU7-59" style="edgeStyle=orthogonalEdgeStyle;curved=1;rounded=0;orthogonalLoop=1;jettySize=auto;html=1;" parent="1" source="Jjx-n1GLnTYui9cO-WU7-30" target="Jjx-n1GLnTYui9cO-WU7-32" edge="1">
          <mxGeometry relative="1" as="geometry" />
        </mxCell>
        <mxCell id="Jjx-n1GLnTYui9cO-WU7-30" value="Stellar(SCP)&lt;br&gt;2015" style="ellipse;whiteSpace=wrap;html=1;" parent="1" vertex="1">
          <mxGeometry x="960" y="582" width="120" height="80" as="geometry" />
        </mxCell>
        <mxCell id="Jjx-n1GLnTYui9cO-WU7-32" value="Quorum Voting&lt;br&gt;2015" style="ellipse;whiteSpace=wrap;html=1;" parent="1" vertex="1">
          <mxGeometry x="990" y="742" width="120" height="80" as="geometry" />
        </mxCell>
        <mxCell id="Jjx-n1GLnTYui9cO-WU7-33" value="CoT&lt;br&gt;2018" style="ellipse;whiteSpace=wrap;html=1;" parent="1" vertex="1">
          <mxGeometry x="430" y="800" width="120" height="80" as="geometry" />
        </mxCell>
        <mxCell id="Jjx-n1GLnTYui9cO-WU7-34" value="Algorand&lt;br&gt;2016" style="ellipse;whiteSpace=wrap;html=1;" parent="1" vertex="1">
          <mxGeometry x="585" y="720" width="120" height="80" as="geometry" />
        </mxCell>
        <mxCell id="Jjx-n1GLnTYui9cO-WU7-70" style="edgeStyle=orthogonalEdgeStyle;curved=1;rounded=0;orthogonalLoop=1;jettySize=auto;html=1;entryX=1;entryY=0.5;entryDx=0;entryDy=0;" parent="1" source="Jjx-n1GLnTYui9cO-WU7-35" target="Jjx-n1GLnTYui9cO-WU7-36" edge="1">
          <mxGeometry relative="1" as="geometry" />
        </mxCell>
        <mxCell id="Jjx-n1GLnTYui9cO-WU7-35" value="Honey Badger&lt;br&gt;2016" style="ellipse;whiteSpace=wrap;html=1;" parent="1" vertex="1">
          <mxGeometry x="-28" y="890" width="120" height="80" as="geometry" />
        </mxCell>
        <mxCell id="Jjx-n1GLnTYui9cO-WU7-71" style="edgeStyle=orthogonalEdgeStyle;curved=1;rounded=0;orthogonalLoop=1;jettySize=auto;html=1;entryX=1;entryY=0.5;entryDx=0;entryDy=0;" parent="1" source="Jjx-n1GLnTYui9cO-WU7-36" target="Jjx-n1GLnTYui9cO-WU7-37" edge="1">
          <mxGeometry relative="1" as="geometry" />
        </mxCell>
        <mxCell id="Jjx-n1GLnTYui9cO-WU7-36" value="Dumbo&lt;br&gt;2020" style="ellipse;whiteSpace=wrap;html=1;" parent="1" vertex="1">
          <mxGeometry x="-228" y="910" width="120" height="80" as="geometry" />
        </mxCell>
        <mxCell id="Jjx-n1GLnTYui9cO-WU7-37" value="Dumbo-NG&lt;br&gt;2022" style="ellipse;whiteSpace=wrap;html=1;" parent="1" vertex="1">
          <mxGeometry x="-438" y="950" width="120" height="80" as="geometry" />
        </mxCell>
        <mxCell id="Jjx-n1GLnTYui9cO-WU7-38" value="ByzCoin&lt;br&gt;2016" style="ellipse;whiteSpace=wrap;html=1;" parent="1" vertex="1">
          <mxGeometry x="-268" y="293" width="120" height="80" as="geometry" />
        </mxCell>
        <mxCell id="Jjx-n1GLnTYui9cO-WU7-39" value="ByzCoinX&lt;br&gt;2017" style="ellipse;whiteSpace=wrap;html=1;" parent="1" vertex="1">
          <mxGeometry x="-438" y="253" width="120" height="80" as="geometry" />
        </mxCell>
        <mxCell id="Jjx-n1GLnTYui9cO-WU7-43" style="edgeStyle=orthogonalEdgeStyle;curved=1;rounded=0;orthogonalLoop=1;jettySize=auto;html=1;exitX=0.5;exitY=0;exitDx=0;exitDy=0;entryX=0;entryY=0.375;entryDx=0;entryDy=0;entryPerimeter=0;" parent="1" target="Jjx-n1GLnTYui9cO-WU7-8" edge="1">
          <mxGeometry relative="1" as="geometry">
            <mxPoint x="450" y="307" as="sourcePoint" />
          </mxGeometry>
        </mxCell>
        <mxCell id="Jjx-n1GLnTYui9cO-WU7-56" style="edgeStyle=orthogonalEdgeStyle;curved=1;rounded=0;orthogonalLoop=1;jettySize=auto;html=1;exitX=1;exitY=1;exitDx=0;exitDy=0;" parent="1" source="Jjx-n1GLnTYui9cO-WU7-53" target="Jjx-n1GLnTYui9cO-WU7-27" edge="1">
          <mxGeometry relative="1" as="geometry" />
        </mxCell>
        <mxCell id="Jjx-n1GLnTYui9cO-WU7-65" style="edgeStyle=orthogonalEdgeStyle;curved=1;rounded=0;orthogonalLoop=1;jettySize=auto;html=1;exitX=0.5;exitY=1;exitDx=0;exitDy=0;" parent="1" source="Jjx-n1GLnTYui9cO-WU7-53" target="Jjx-n1GLnTYui9cO-WU7-33" edge="1">
          <mxGeometry relative="1" as="geometry">
            <Array as="points">
              <mxPoint x="620" y="700" />
              <mxPoint x="490" y="700" />
            </Array>
          </mxGeometry>
        </mxCell>
        <mxCell id="Jjx-n1GLnTYui9cO-WU7-68" style="edgeStyle=orthogonalEdgeStyle;curved=1;rounded=0;orthogonalLoop=1;jettySize=auto;html=1;exitX=1;exitY=1;exitDx=0;exitDy=0;entryX=0.5;entryY=1;entryDx=0;entryDy=0;" parent="1" source="Jjx-n1GLnTYui9cO-WU7-53" target="Jjx-n1GLnTYui9cO-WU7-11" edge="1">
          <mxGeometry relative="1" as="geometry">
            <Array as="points">
              <mxPoint x="730" y="548" />
              <mxPoint x="730" y="1020" />
              <mxPoint x="260" y="1020" />
            </Array>
          </mxGeometry>
        </mxCell>
        <mxCell id="Jjx-n1GLnTYui9cO-WU7-69" style="edgeStyle=orthogonalEdgeStyle;curved=1;rounded=0;orthogonalLoop=1;jettySize=auto;html=1;exitX=1;exitY=1;exitDx=0;exitDy=0;entryX=1;entryY=0.5;entryDx=0;entryDy=0;" parent="1" target="Jjx-n1GLnTYui9cO-WU7-35" edge="1" source="Jjx-n1GLnTYui9cO-WU7-53">
          <mxGeometry relative="1" as="geometry">
            <mxPoint x="662" y="550" as="sourcePoint" />
            <mxPoint x="260" y="672" as="targetPoint" />
            <Array as="points">
              <mxPoint x="730" y="550" />
              <mxPoint x="730" y="1022" />
              <mxPoint x="260" y="1022" />
              <mxPoint x="260" y="930" />
            </Array>
          </mxGeometry>
        </mxCell>
        <mxCell id="Jjx-n1GLnTYui9cO-WU7-82" style="edgeStyle=orthogonalEdgeStyle;curved=1;rounded=0;orthogonalLoop=1;jettySize=auto;html=1;entryX=0.942;entryY=0.721;entryDx=0;entryDy=0;entryPerimeter=0;" parent="1" source="Jjx-n1GLnTYui9cO-WU7-38" target="Jjx-n1GLnTYui9cO-WU7-39" edge="1">
          <mxGeometry relative="1" as="geometry" />
        </mxCell>
        <mxCell id="Jjx-n1GLnTYui9cO-WU7-83" value="Ripple(RPCA)&lt;br&gt;2013" style="shape=trapezoid;perimeter=trapezoidPerimeter;whiteSpace=wrap;html=1;fixedSize=1;" parent="1" vertex="1">
          <mxGeometry x="785" y="430" width="140" height="70" as="geometry" />
        </mxCell>
        <mxCell id="Jjx-n1GLnTYui9cO-WU7-84" value="" style="rounded=0;whiteSpace=wrap;html=1;" parent="1" vertex="1">
          <mxGeometry x="920" y="1030" width="120" height="60" as="geometry" />
        </mxCell>
        <mxCell id="Jjx-n1GLnTYui9cO-WU7-85" value="拜占庭容错 1/2" style="text;html=1;align=center;verticalAlign=middle;resizable=0;points=[];autosize=1;strokeColor=none;fillColor=none;" parent="1" vertex="1">
          <mxGeometry x="1040" y="1048" width="100" height="30" as="geometry" />
        </mxCell>
        <mxCell id="Jjx-n1GLnTYui9cO-WU7-86" value="" style="ellipse;whiteSpace=wrap;html=1;" parent="1" vertex="1">
          <mxGeometry x="920" y="1120" width="120" height="80" as="geometry" />
        </mxCell>
        <mxCell id="Jjx-n1GLnTYui9cO-WU7-87" value="拜占庭容错 1/3" style="text;html=1;align=center;verticalAlign=middle;resizable=0;points=[];autosize=1;strokeColor=none;fillColor=none;" parent="1" vertex="1">
          <mxGeometry x="1040" y="1145" width="100" height="30" as="geometry" />
        </mxCell>
        <mxCell id="Jjx-n1GLnTYui9cO-WU7-90" value="" style="shape=trapezoid;perimeter=trapezoidPerimeter;whiteSpace=wrap;html=1;fixedSize=1;" parent="1" vertex="1">
          <mxGeometry x="920" y="1230" width="120" height="60" as="geometry" />
        </mxCell>
        <mxCell id="Jjx-n1GLnTYui9cO-WU7-91" value="其他" style="text;html=1;align=center;verticalAlign=middle;resizable=0;points=[];autosize=1;strokeColor=none;fillColor=none;" parent="1" vertex="1">
          <mxGeometry x="1065" y="1240" width="50" height="30" as="geometry" />
        </mxCell>
        <mxCell id="FyjvSkbcfdwy83ujvMnT-7" style="edgeStyle=orthogonalEdgeStyle;curved=1;rounded=0;orthogonalLoop=1;jettySize=auto;html=1;entryX=0.5;entryY=1;entryDx=0;entryDy=0;" edge="1" parent="1" source="FyjvSkbcfdwy83ujvMnT-1" target="Jjx-n1GLnTYui9cO-WU7-5">
          <mxGeometry relative="1" as="geometry">
            <mxPoint x="450" y="450" as="targetPoint" />
          </mxGeometry>
        </mxCell>
        <mxCell id="FyjvSkbcfdwy83ujvMnT-1" value="&lt;font style=&quot;font-size: 24px;&quot;&gt;&lt;b&gt;PoW&lt;br&gt;1999&lt;/b&gt;&lt;/font&gt;" style="rounded=0;whiteSpace=wrap;html=1;" vertex="1" parent="1">
          <mxGeometry x="230" y="504" width="180" height="105" as="geometry" />
        </mxCell>
        <mxCell id="FyjvSkbcfdwy83ujvMnT-8" style="edgeStyle=orthogonalEdgeStyle;curved=1;rounded=0;orthogonalLoop=1;jettySize=auto;html=1;entryX=0.5;entryY=1;entryDx=0;entryDy=0;" edge="1" parent="1" source="Jjx-n1GLnTYui9cO-WU7-53" target="Jjx-n1GLnTYui9cO-WU7-5">
          <mxGeometry relative="1" as="geometry" />
        </mxCell>
        <mxCell id="FyjvSkbcfdwy83ujvMnT-9" style="edgeStyle=orthogonalEdgeStyle;curved=1;rounded=0;orthogonalLoop=1;jettySize=auto;html=1;exitX=1;exitY=0;exitDx=0;exitDy=0;entryX=0;entryY=0.5;entryDx=0;entryDy=0;" edge="1" parent="1" source="Jjx-n1GLnTYui9cO-WU7-53" target="Jjx-n1GLnTYui9cO-WU7-83">
          <mxGeometry relative="1" as="geometry" />
        </mxCell>
        <mxCell id="Jjx-n1GLnTYui9cO-WU7-53" value="&lt;font style=&quot;font-size: 24px;&quot;&gt;&lt;b&gt;BFT&lt;br&gt;1982&lt;/b&gt;&lt;/font&gt;" style="ellipse;whiteSpace=wrap;html=1;" parent="1" vertex="1">
          <mxGeometry x="480" y="496.5" width="220" height="120" as="geometry" />
        </mxCell>
      </root>
    </mxGraphModel>
  </diagram>
</mxfile>
